<?xml version="1.0" encoding="UTF-8" standalone="no"?>
<!-- Created with Inkscape (http://www.inkscape.org/) -->

<svg
   xmlns:dc="http://purl.org/dc/elements/1.1/"
   xmlns:cc="http://creativecommons.org/ns#"
   xmlns:rdf="http://www.w3.org/1999/02/22-rdf-syntax-ns#"
   xmlns:svg="http://www.w3.org/2000/svg"
   xmlns="http://www.w3.org/2000/svg"
   xmlns:sodipodi="http://sodipodi.sourceforge.net/DTD/sodipodi-0.dtd"
   xmlns:inkscape="http://www.inkscape.org/namespaces/inkscape"
   width="128px"
   height="128px"
   viewBox="0 0 128 128"
   version="1.1"
   id="SVGRoot"
   inkscape:version="0.92.5 (2060ec1f9f, 2020-04-08)"
   sodipodi:docname="Tridentu.svg">
  <defs
     id="defs10" />
  <sodipodi:namedview
     id="base"
     pagecolor="#ffffff"
     bordercolor="#666666"
     borderopacity="1.0"
     inkscape:pageopacity="0.0"
     inkscape:pageshadow="2"
     inkscape:zoom="2.8689982"
     inkscape:cx="64"
     inkscape:cy="64"
     inkscape:document-units="px"
     inkscape:current-layer="layer1"
     showgrid="false"
     inkscape:window-width="1848"
     inkscape:window-height="1016"
     inkscape:window-x="72"
     inkscape:window-y="27"
     inkscape:window-maximized="1"
     inkscape:grid-bbox="true"
     showguides="false">
    <inkscape:grid
       type="xygrid"
       id="grid27" />
  </sodipodi:namedview>
  <metadata
     id="metadata13">
    <rdf:RDF>
      <cc:Work
         rdf:about="">
        <dc:format>image/svg+xml</dc:format>
        <dc:type
           rdf:resource="http://purl.org/dc/dcmitype/StillImage" />
        <dc:title></dc:title>
      </cc:Work>
    </rdf:RDF>
  </metadata>
  <g
     inkscape:groupmode="layer"
     id="layer2"
     inkscape:label="Backdrop1">
    <rect
       style="fill:#3b4252;fill-opacity:1;stroke:none;stroke-width:1.00296307"
       id="rect8494"
       width="54.292892"
       height="30.571083"
       x="38.055458"
       y="17.664206" />
  </g>
  <g
     inkscape:label="Boat"
     inkscape:groupmode="layer"
     id="layer1"
     style="display:inline">
    <path
       inkscape:connector-curvature="0"
       id="path31"
       d="m 15,53 50,-30 45,30 -10,55 H 25 L 15,53 v 0"
       style="opacity:1;fill:none;stroke:none;stroke-width:1px;stroke-linecap:butt;stroke-linejoin:miter;stroke-opacity:1" />
    <path
       inkscape:connector-curvature="0"
       id="path33"
       d="M 25.927587,107.77903 C 25.888547,107.65749 23.669364,95.506303 20.996078,80.776385 17.287268,60.340692 16.18491,53.947987 16.343838,53.797504 16.663595,53.494738 65.259957,24.384619 65.445634,24.384619 65.564407,24.384619 109.59509,52.652153 110,53 c 0.0342,0.02938 -2.37572,13.059603 -5.08111,27.941679 L 100,108 H 62.999289 c -29.444858,0 -37.01521,-0.0451 -37.071702,-0.22097 z"
       style="opacity:1;fill:#2e3440;fill-opacity:1;stroke:none;stroke-width:0.17677669"
       sodipodi:nodetypes="cssscscsc" />
    <g
       id="g8530"
       transform="translate(-106.77312,-12.374369)"
       style="fill:#ebcb8b;fill-opacity:1">
      <path
         id="path8525"
         style="fill:#ebcb8b;fill-opacity:1;stroke:#000000;stroke-width:0.2;stroke-linecap:butt;stroke-linejoin:miter;stroke-miterlimit:4;stroke-dasharray:none;stroke-opacity:1"
         d="m 155.5535,77.73162 0.022,-17.471222 6.92424,-5.271606 1.11463,23.33916 h 4.17559 l -0.73687,-22.306782 3.43873,-2.818988 3.43872,2.818988 -0.36844,21.816522 3.92998,-0.245129 -0.24563,-22.306781 5.64934,1.593342 1.1053,20.590874 c 0,0 0.12281,5.637978 -2.70186,6.863625 -2.82466,1.225648 -7.85994,0.122565 -7.85994,0.122565 v 0 m 0,0 -15.45478,-5.810558 -2.43106,-0.91401 c 0,0 -1.99369,7.863306 4.2742,7.582521 l 8.20793,-0.367694 m 0,0 0.24563,20.590873 4.91246,-0.36769 0.24562,-20.713442"
         inkscape:connector-curvature="0"
         sodipodi:nodetypes="cccccccccccccscccccsccccc" />
    </g>
    <flowRoot
       style="fill:#000000;fill-opacity:1;stroke:none;font-family:FreeMono;font-style:normal;font-weight:bold;font-size:21.33333333px;line-height:1.25;letter-spacing:0px;word-spacing:0px;-inkscape-font-specification:'FreeMono Bold';font-stretch:normal;font-variant:normal;opacity:1;"
       id="flowRoot8555"
       xml:space="preserve"><flowRegion
         style="font-size:21.33333333px;opacity:1;"
         id="flowRegion8557"><rect
           style="font-size:21.33333333px;opacity:1;"
           y="76.20443"
           x="72.301666"
           height="19.622213"
           width="22.804193"
           id="rect8559" /></flowRegion><flowPara
         id="flowPara8561" /></flowRoot>    <text
       xml:space="preserve"
       style="font-style:normal;font-variant:normal;font-weight:bold;font-stretch:normal;font-size:13.33333302px;line-height:1.25;font-family:FreeMono;-inkscape-font-specification:'FreeMono Bold';letter-spacing:0px;word-spacing:0px;fill:#000000;fill-opacity:1;stroke:none"
       x="83.792152"
       y="86.634254"
       id="text8586"><tspan
         sodipodi:role="line"
         id="tspan8584"
         x="83.792152"
         y="98.96759" /></text>
    <path
       style="fill:#5e81ac;stroke:#000000;stroke-width:0;stroke-linecap:butt;stroke-linejoin:miter;stroke-opacity:1;stroke-miterlimit:4;stroke-dasharray:none;fill-opacity:1"
       d="m 0.1767767,118.63084 c 0,0 25.8093973,-4.41942 65.9377073,-17.85445 40.128306,-13.43503 59.573746,7.77817 59.573746,7.77817 l 2.82843,3.00521"
       id="path8588"
       inkscape:connector-curvature="0" />
    <rect
       style="fill:#5e81ac;fill-opacity:1;stroke:#000000;stroke-width:0;stroke-miterlimit:4;stroke-dasharray:none;stroke-opacity:1"
       id="rect8592"
       width="128.1631"
       height="9.5459366"
       x="0.17677671"
       y="118.63084" />
    <rect
       style="fill:#5e81ac;fill-opacity:1;stroke:#000000;stroke-width:0;stroke-miterlimit:4;stroke-dasharray:none;stroke-opacity:1"
       id="rect8594"
       width="105.00536"
       height="9.3691645"
       x="23.157747"
       y="114.38819" />
    <rect
       style="fill:#5e81ac;fill-opacity:1;stroke:#000000;stroke-width:0;stroke-miterlimit:4;stroke-dasharray:none;stroke-opacity:1"
       id="rect8596"
       width="128.33989"
       height="10.783376"
       x="0.17677669"
       y="111.55977" />
    <path
       style="fill:#5e81ac;fill-opacity:1;stroke:#000000;stroke-width:0;stroke-miterlimit:4;stroke-dasharray:none;stroke-opacity:1"
       id="path8598"
       d="m 51.324665,102.21422 c 2.36318,0.71538 4.87102,0.75029 7.318605,0.86837 3.036441,0.12453 6.075606,0.1064 9.113752,0.1013 1.812839,0.0555 3.611955,-0.0513 5.395361,-0.37295 0.811192,-0.0994 1.542289,-0.5039 2.252107,-0.8865 0,0 -3.990084,3.19248 -3.990084,3.19248 v 0 c -0.745259,0.34672 -1.502162,0.67936 -2.33237,0.75274 -1.780581,0.25757 -3.574382,0.30195 -5.371903,0.25241 -3.007411,-0.0252 -6.014431,-0.0996 -9.020387,-0.19406 -2.538543,-0.10537 -5.10595,-0.16485 -7.58551,-0.77297 0,0 4.220429,-2.94082 4.220429,-2.94082 z"
       inkscape:connector-curvature="0" />
    <path
       id="path8600"
       style="fill:#5e81ac;fill-opacity:1;stroke:#000000;stroke-width:0;stroke-miterlimit:4;stroke-dasharray:none;stroke-opacity:1"
       d="m 43.332031,99.246094 c -3.063332,-0.03545 -6.0819,0.596613 -9.05664,1.263676 -1.597286,0.40013 -3.218857,0.6919 -4.84375,0.95507 -3.185179,0.0222 -6.371487,-0.005 -9.556641,0.002 -3.10568,-0.007 -6.210716,-0.004 -9.316406,-0.0176 -2.4115789,-0.0322 -4.8227485,-0.002 -7.2343752,-0.008 -0.7867409,0.009 -1.5746157,-0.008 -2.36132818,-0.008 -0.23537557,0 -0.46977683,0.002 -0.70507812,0.008 -0.12943551,0.003 -0.27385459,-0.0403 -0.38867188,0.0195 -0.13474682,0.0702 -0.27077803,0.13968 -0.40625,0.20898 1.55641298,0.066 1.69451978,2.60878 1.55859378,3.66797 -0.0162,0.12624 -0.046781,0.24648 -0.0800782,0.36719 0.31469185,1.50964 0.43319385,3.05514 0.36523435,4.60547 -0.016639,0.37957 0.1221929,0.86618 -0.1503906,1.13086 -0.33965386,0.3298 -0.7393312,0.76085 -1.1640625,1.06054 0.00202643,0.10196 0.02217918,0.20587 0.06835937,0.3125 0.05276539,0.12184 0.19825461,0.17868 0.29687501,0.26758 0.51445066,0.19833 1.04080802,0.36043 1.56640622,0.52735 -0.1705071,0.21053 0.3707825,0.53218 0.5917969,0.74609 0.2827752,0.2737 0.617142,0.48999 0.9492188,0.70117 1.8088011,1.15027 3.8097845,1.8905 5.7949218,2.66602 2.3922614,0.88977 4.8513574,1.56614 7.3261724,2.17773 0.208933,0.0516 3.139172,0.76504 3.533203,0.83594 0.555042,0.0999 1.118648,0.14865 1.677734,0.22265 0.678123,-0.0138 1.360479,0.0287 2.035156,-0.041 2.726156,-0.28151 5.310928,-1.18056 7.869141,-2.10742 1.309882,-0.47458 3.793327,-1.42268 5.128906,-1.92969 3.190524,-1.18666 6.077302,-2.85257 8.914063,-4.77148 0.119733,-0.081 0.229381,-0.18941 0.326171,-0.31446 0.04955,-0.018 0.101433,-0.0291 0.150391,-0.0488 0.551476,-0.22178 1.081212,-0.5017 1.59375,-0.80273 1.573488,-0.92415 3.166896,-1.82044 4.691406,-2.82227 4.250369,0.0303 8.50747,0.0586 12.744141,0.41016 l 4.238281,-2.97461 c -4.863688,-0.15972 -9.734982,-0.079 -14.601562,-0.10742 -0.203159,-0.001 -0.406217,-0.003 -0.609375,-0.004 -0.07072,-0.34018 -0.242254,-0.6367 -0.445313,-0.92383 0.04317,-0.27202 -0.04887,-0.56775 -0.339843,-0.88867 -0.189263,-0.20873 -0.478474,-0.33687 -0.785157,-0.43554 -1.768309,-1.55711 -3.737278,-2.86677 -6.037109,-3.486332 -1.384395,-0.372941 -1.928042,-0.352289 -3.337891,-0.464844 z m -46.9374998,4.054686 c -0.2201139,0.13183 -0.430697,0.27841 -0.6445312,0.41992 -0.034086,0.30229 -0.082578,0.60201 -0.1269531,0.90235 0.3140209,0.18976 0.6620571,0.3355 1.0234375,0.46093 -0.066882,-0.27777 -0.126721,-0.49181 -0.2265625,-1.02734 -0.00964,-0.20118 -0.026112,-0.47569 -0.025391,-0.75586 z m 35.7949218,1.08008 c 0.364537,-3.3e-4 0.729188,0.006 1.09375,0.002 0.459355,0.005 0.917736,0.0241 1.376953,0.0352 -0.0033,0.001 -0.0064,0.003 -0.0098,0.004 -0.07785,0.0218 -0.156406,0.0394 -0.234375,0.0605 -0.742887,-0.026 -1.484469,-0.0595 -2.226563,-0.10156 z m -35.548828,1.56641 c -0.3918865,0.27561 -0.7818919,0.55289 -1.1699219,0.83398 0.1216669,0.27657 0.2451357,0.55163 0.2695313,0.8418 0.1635261,-0.25858 0.3251687,-0.51875 0.4941406,-0.77344 0.161837,-0.27319 0.2833772,-0.58824 0.40625,-0.90234 z m 47.75,2.14648 c 1.786981,-0.002 3.574326,0.002 5.361328,0.01 -0.02295,0.0904 -0.04412,0.18044 -0.08594,0.27929 -0.146537,0.34641 -0.985219,0.88634 -0.984375,0.98047 -0.150146,0.0363 -0.232911,0.0292 -0.111329,-0.10742 -0.777946,0.16574 -1.544458,0.32632 -2.316406,0.47461 -0.0039,-0.0106 -0.01003,-0.0206 -0.01367,-0.0312 -0.465897,-0.74886 -1.115743,-1.24732 -1.849609,-1.60547 z m 6.822266,0.0117 c 0.0046,3e-5 0.0091,-3e-5 0.01367,0 0.01951,1.5e-4 0.03908,-1.5e-4 0.05859,0 -0.227644,0.12756 -0.518803,0.28503 -0.835937,0.45117 0.251718,-0.15685 0.506514,-0.30656 0.763672,-0.45117 z m -19.203125,0.0664 c 0.01758,-9e-5 0.03516,8e-5 0.05273,0 -0.055,0.0192 -0.10911,0.0412 -0.164062,0.0605 0.03782,-0.0188 0.0736,-0.0415 0.111328,-0.0605 z m 9.908203,4.54687 c 0.0054,0.14473 -0.03819,0.29363 -0.189453,0.5332 -0.11382,0.18028 -0.499565,0.48971 -0.621094,0.61914 -0.675276,0.32667 -1.130024,0.51627 -0.576172,0.10743 -1.899123,0.73393 -3.230011,1.25864 -5.154297,1.96679 -2.488523,0.91581 -4.988379,1.82149 -7.642578,2.1211 -0.643415,0.0726 -1.294262,0.0429 -1.941406,0.0644 -2.755828,-0.31836 -5.478018,-0.90323 -8.15625,-1.64648 0.390898,-0.002 0.828791,6.4e-4 1.148437,-0.004 3.255024,-0.0463 6.495916,-0.2707 9.742188,-0.49414 0.193592,-0.0173 4.42914,-0.38614 4.876953,-0.46094 0.479155,-0.0801 0.974599,-0.15798 1.40625,-0.38086 1.257484,-0.64931 2.504769,-1.32766 3.708984,-2.07226 0.175973,-0.005 0.351675,-0.003 0.527344,-0.0137 0.96406,-0.0567 1.920397,-0.18215 2.871094,-0.33984 z m -31.478516,0.26563 c 1.530896,0.0251 3.060911,0.0461 4.591797,0.0664 0.596449,0.0125 1.192628,0.009 1.789062,0.0137 -1.096109,0.40635 -2.155651,0.99982 -3.576171,2.05664 -0.02133,-0.007 -0.04313,-0.014 -0.06445,-0.0215 -1.271716,-0.52991 -2.546418,-1.05565 -3.7636724,-1.69531 0.3401964,-0.12629 0.6821234,-0.26562 1.0234374,-0.41992 z m 18.472656,0.0566 c 1.687987,0.007 3.374511,0.0177 5.0625,0.0215 -0.767174,0.0821 -1.648513,0.17612 -1.736328,0.18555 -3.558205,0.28718 -7.15524,0.59184 -10.730469,0.45312 0.168263,-0.0579 0.338342,-0.10943 0.50586,-0.16992 0.420858,-0.15678 0.839937,-0.31886 1.259766,-0.47852 0.05663,-4.2e-4 0.113295,-0.002 0.169921,-0.002 1.82284,-0.0207 3.645959,-0.0175 5.46875,-0.01 z" />
    <rect
       style="fill:#5e81ac;fill-opacity:1;stroke:#000000;stroke-width:0;stroke-miterlimit:4;stroke-dasharray:none;stroke-opacity:1"
       id="rect8609"
       width="37.483803"
       height="27.027388"
       x="-0.53710938"
       y="101.66972" />
    <rect
       style="fill:#5e81ac;fill-opacity:1;stroke:#000000;stroke-width:0;stroke-miterlimit:4;stroke-dasharray:none;stroke-opacity:1"
       id="rect8611"
       width="12.271485"
       height="23.529873"
       x="116.06839"
       y="104.6469" />
  </g>
</svg>
